<?xml version="1.0" encoding="utf-8"?>
<svg width="1006px" height="594px" viewbox="0 0 1006 594" version="1.1" xmlns:xlink="http://www.w3.org/1999/xlink" xmlns="http://www.w3.org/2000/svg">
  <path d="M296.999 0L709.001 0Q716.292 0 723.574 0.357748Q730.856 0.715496 738.112 1.43013Q745.368 2.14477 752.58 3.21457Q759.792 4.28436 766.943 5.70675Q774.093 7.12914 781.166 8.90069Q788.238 10.6722 795.215 12.7887Q802.192 14.9051 809.057 17.3614Q815.922 19.8176 822.657 22.6077Q829.393 25.3978 835.984 28.5151Q842.575 31.6323 849.005 35.0693Q855.435 38.5062 861.689 42.2545Q867.943 46.0027 874.005 50.0533Q880.067 54.104 885.923 58.4472Q891.779 62.7903 897.415 67.4157Q903.051 72.041 908.453 76.9372Q913.855 81.8335 919.011 86.989Q924.166 92.1444 929.063 97.5466Q933.959 102.949 938.584 108.585Q943.21 114.221 947.553 120.077Q951.896 125.933 955.946 131.995Q959.997 138.057 963.745 144.311Q967.494 150.565 970.931 156.995Q974.367 163.425 977.485 170.016Q980.602 176.606 983.392 183.342Q986.182 190.078 988.638 196.943Q991.095 203.808 993.211 210.785Q995.328 217.762 997.099 224.834Q998.871 231.907 1000.29 239.057Q1001.72 246.208 1002.79 253.42Q1003.86 260.632 1004.57 267.888Q1005.28 275.144 1005.64 282.426Q1006 289.708 1006 296.999L1006 297.001Q1006 304.292 1005.64 311.574Q1005.28 318.856 1004.57 326.112Q1003.86 333.368 1002.79 340.58Q1001.72 347.792 1000.29 354.943Q998.871 362.093 997.099 369.166Q995.328 376.238 993.211 383.215Q991.095 390.192 988.638 397.057Q986.182 403.922 983.392 410.658Q980.602 417.393 977.485 423.984Q974.367 430.575 970.931 437.005Q967.494 443.435 963.745 449.689Q959.997 455.943 955.946 462.005Q951.896 468.067 947.553 473.923Q943.21 479.779 938.584 485.415Q933.959 491.051 929.063 496.453Q924.166 501.855 919.011 507.011Q913.855 512.166 908.453 517.063Q903.051 521.959 897.415 526.584Q891.779 531.21 885.923 535.553Q880.067 539.896 874.005 543.947Q867.943 547.997 861.689 551.745Q855.435 555.494 849.005 558.931Q842.575 562.368 835.984 565.485Q829.393 568.602 822.657 571.392Q815.922 574.182 809.057 576.639Q802.192 579.095 795.215 581.211Q788.238 583.328 781.166 585.099Q774.093 586.871 766.943 588.293Q759.792 589.716 752.58 590.785Q745.368 591.855 738.112 592.57Q730.856 593.284 723.574 593.642Q716.292 594 709.001 594L0 594L0 296.999Q0 289.708 0.357748 282.426Q0.715496 275.144 1.43013 267.888Q2.14477 260.632 3.21457 253.42Q4.28436 246.208 5.70675 239.057Q7.12914 231.907 8.90069 224.834Q10.6722 217.762 12.7887 210.785Q14.9051 203.808 17.3614 196.943Q19.8176 190.078 22.6077 183.342Q25.3978 176.606 28.5151 170.016Q31.6323 163.425 35.0693 156.995Q38.5062 150.565 42.2545 144.311Q46.0027 138.057 50.0533 131.995Q54.104 125.933 58.4472 120.077Q62.7903 114.221 67.4157 108.585Q72.041 102.949 76.9372 97.5466Q81.8335 92.1444 86.989 86.989Q92.1444 81.8335 97.5466 76.9372Q102.949 72.041 108.585 67.4157Q114.221 62.7904 120.077 58.4472Q125.933 54.104 131.995 50.0533Q138.057 46.0027 144.311 42.2545Q150.565 38.5062 156.995 35.0693Q163.425 31.6323 170.016 28.5151Q176.606 25.3978 183.342 22.6077Q190.078 19.8176 196.943 17.3614Q203.808 14.9051 210.785 12.7887Q217.762 10.6722 224.834 8.90069Q231.907 7.12914 239.057 5.70675Q246.208 4.28436 253.42 3.21457Q260.632 2.14477 267.888 1.43013Q275.144 0.715496 282.426 0.357748Q289.708 0 296.999 0L296.999 0Z" transform="matrix(-1 0 0 -1 1006 594)" id="Rectangle-Copy-4" fill="#F1F3F5" fill-opacity="0.5022554" fill-rule="evenodd" stroke="none" />
</svg>